<?xml version="1.0"?><svg xmlns="http://www.w3.org/2000/svg" xmlns:svg="http://www.w3.org/2000/svg" version="1.1" viewBox="-2 -2 86 86"><g class="layer">
  <title>Layer 1</title><path d="M1 18a1,1 0 0,1 1,1a1,1 0 0,1 -1,1a1,1 0 0,1 -1,-1a1,1 0 0,1 1,-1M1 22h2a1,1 0 0,0 1,-1v-2a1,1 0 0,1 1,-1a1,1 0 0,1 1,1a1,1 0 0,0 1,1a1,1 0 0,0 1,-1a1,1 0 0,1 1,-1a1,1 0 0,1 1,1a1,1 0 0,0 1,1h2h2a1,1 0 0,1 1,1a1,1 0 0,0 1,1a1,1 0 0,0 1,-1a1,1 0 0,0 -1,-1a1,1 0 0,1 -1,-1a1,1 0 0,1 1,-1h2h2a1,1 0 0,1 1,1a1,1 0 0,0 1,1a1,1 0 0,1 1,1a1,1 0 0,1 -1,1a1,1 0 0,0 -1,1a1,1 0 0,1 -1,1a1,1 0 0,0 -1,1v2a1,1 0 0,1 -1,1a1,1 0 0,1 -1,-1v-2a1,1 0 0,0 -1,-1h-2a1,1 0 0,1 -1,-1a1,1 0 0,0 -1,-1a1,1 0 0,0 -1,1a1,1 0 0,1 -1,1h-2a1,1 0 0,1 -1,-1a1,1 0 0,0 -1,-1a1,1 0 0,0 -1,1a1,1 0 0,0 1,1a1,1 0 0,1 1,1a1,1 0 0,1 -1,1h-2a1,1 0 0,1 -1,-1a1,1 0 0,0 -1,-1a1,1 0 0,0 -1,1a1,1 0 0,1 -1,1a1,1 0 0,1 -1,-1v-2a1,1 0 0,1 1,-1M1 28a1,1 0 0,1 1,1a1,1 0 0,0 1,1a1,1 0 0,0 1,-1a1,1 0 0,1 1,-1a1,1 0 0,1 1,1a1,1 0 0,0 1,1a1,1 0 0,1 1,1v2v2a1,1 0 0,1 -1,1a1,1 0 0,1 -1,-1a1,1 0 0,0 -1,-1h-2a1,1 0 0,1 -1,-1a1,1 0 0,0 -1,-1a1,1 0 0,1 -1,-1v-2a1,1 0 0,1 1,-1M1 38h2h2a1,1 0 0,1 1,1a1,1 0 0,1 -1,1h-2a1,1 0 0,0 -1,1a1,1 0 0,1 -1,1a1,1 0 0,1 -1,-1v-2a1,1 0 0,1 1,-1M1 44a1,1 0 0,1 1,1v2a1,1 0 0,0 1,1h2a1,1 0 0,1 1,1v2a1,1 0 0,1 -1,1h-2a1,1 0 0,1 -1,-1a1,1 0 0,0 -1,-1a1,1 0 0,1 -1,-1v-2v-2a1,1 0 0,1 1,-1M1 54a1,1 0 0,1 1,1a1,1 0 0,0 1,1a1,1 0 0,1 1,1a1,1 0 0,1 -1,1a1,1 0 0,0 -1,1a1,1 0 0,0 1,1a1,1 0 0,1 1,1a1,1 0 0,1 -1,1a1,1 0 0,0 -1,1v2a1,1 0 0,1 -1,1a1,1 0 0,1 -1,-1v-2v-2v-2v-2v-2a1,1 0 0,1 1,-1M3 26a1,1 0 0,1 1,1a1,1 0 0,1 -1,1a1,1 0 0,1 -1,-1a1,1 0 0,1 1,-1M5 44a1,1 0 0,1 1,1a1,1 0 0,1 -1,1a1,1 0 0,1 -1,-1a1,1 0 0,1 1,-1M5 58a1,1 0 0,1 1,1a1,1 0 0,1 -1,1a1,1 0 0,1 -1,-1a1,1 0 0,1 1,-1M5 64a1,1 0 0,1 1,1a1,1 0 0,1 -1,1a1,1 0 0,1 -1,-1a1,1 0 0,1 1,-1M7 40h2h2h2a1,1 0 0,0 1,-1a1,1 0 0,0 -1,-1a1,1 0 0,1 -1,-1a1,1 0 0,1 1,-1a1,1 0 0,0 1,-1a1,1 0 0,0 -1,-1a1,1 0 0,1 -1,-1a1,1 0 0,1 1,-1h2h2h2a1,1 0 0,1 1,1a1,1 0 0,1 -1,1h-2a1,1 0 0,0 -1,1v2a1,1 0 0,0 1,1a1,1 0 0,0 1,-1a1,1 0 0,1 1,-1a1,1 0 0,1 1,1a1,1 0 0,0 1,1a1,1 0 0,1 1,1a1,1 0 0,0 1,1h2a1,1 0 0,1 1,1a1,1 0 0,0 1,1a1,1 0 0,1 1,1a1,1 0 0,1 -1,1a1,1 0 0,0 -1,1a1,1 0 0,1 -1,1h-2a1,1 0 0,1 -1,-1a1,1 0 0,1 1,-1a1,1 0 0,0 1,-1a1,1 0 0,0 -1,-1h-2a1,1 0 0,1 -1,-1a1,1 0 0,0 -1,-1a1,1 0 0,0 -1,1a1,1 0 0,1 -1,1a1,1 0 0,0 -1,1a1,1 0 0,1 -1,1a1,1 0 0,1 -1,-1a1,1 0 0,0 -1,-1h-2a1,1 0 0,0 -1,1a1,1 0 0,1 -1,1a1,1 0 0,1 -1,-1a1,1 0 0,0 -1,-1a1,1 0 0,1 -1,-1a1,1 0 0,1 1,-1M7 46h2a1,1 0 0,0 1,-1a1,1 0 0,1 1,-1h2a1,1 0 0,1 1,1a1,1 0 0,1 -1,1a1,1 0 0,0 -1,1a1,1 0 0,1 -1,1a1,1 0 0,0 -1,1a1,1 0 0,1 -1,1a1,1 0 0,1 -1,-1a1,1 0 0,0 -1,-1a1,1 0 0,1 -1,-1a1,1 0 0,1 1,-1M7 54a1,1 0 0,1 1,1v2a1,1 0 0,1 -1,1a1,1 0 0,1 -1,-1v-2a1,1 0 0,1 1,-1M7 62a1,1 0 0,1 1,1a1,1 0 0,1 -1,1a1,1 0 0,1 -1,-1a1,1 0 0,1 1,-1M9 26h2a1,1 0 0,1 1,1a1,1 0 0,1 -1,1h-2a1,1 0 0,1 -1,-1a1,1 0 0,1 1,-1M9 36a1,1 0 0,1 1,1a1,1 0 0,1 -1,1a1,1 0 0,1 -1,-1a1,1 0 0,1 1,-1M9 52a1,1 0 0,1 1,1a1,1 0 0,1 -1,1a1,1 0 0,1 -1,-1a1,1 0 0,1 1,-1M9 58h2a1,1 0 0,1 1,1a1,1 0 0,0 1,1h2a1,1 0 0,1 1,1a1,1 0 0,1 -1,1h-2h-2a1,1 0 0,1 -1,-1a1,1 0 0,0 -1,-1a1,1 0 0,1 -1,-1a1,1 0 0,1 1,-1M9 64a1,1 0 0,1 1,1a1,1 0 0,1 -1,1a1,1 0 0,1 -1,-1a1,1 0 0,1 1,-1M11 16h2a1,1 0 0,1 1,1a1,1 0 0,1 -1,1h-2a1,1 0 0,1 -1,-1a1,1 0 0,1 1,-1M11 30a1,1 0 0,1 1,1a1,1 0 0,1 -1,1a1,1 0 0,1 -1,-1a1,1 0 0,1 1,-1M11 50a1,1 0 0,1 1,1a1,1 0 0,1 -1,1a1,1 0 0,1 -1,-1a1,1 0 0,1 1,-1M13 24a1,1 0 0,1 1,1a1,1 0 0,1 -1,1a1,1 0 0,1 -1,-1a1,1 0 0,1 1,-1M13 28h2h2a1,1 0 0,1 1,1a1,1 0 0,1 -1,1h-2h-2a1,1 0 0,1 -1,-1a1,1 0 0,1 1,-1M13 48a1,1 0 0,0 1,-1a1,1 0 0,1 1,-1a1,1 0 0,1 1,1a1,1 0 0,0 1,1a1,1 0 0,1 1,1a1,1 0 0,0 1,1a1,1 0 0,0 1,-1v-2a1,1 0 0,1 1,-1a1,1 0 0,1 1,1a1,1 0 0,0 1,1a1,1 0 0,1 1,1a1,1 0 0,1 -1,1a1,1 0 0,0 -1,1a1,1 0 0,1 -1,1h-2a1,1 0 0,0 -1,1a1,1 0 0,0 1,1a1,1 0 0,1 1,1a1,1 0 0,1 -1,1a1,1 0 0,0 -1,1v2a1,1 0 0,1 -1,1a1,1 0 0,1 -1,-1v-2v-2v-2v-2a1,1 0 0,0 -1,-1h-2a1,1 0 0,1 -1,-1a1,1 0 0,1 1,-1M13 52a1,1 0 0,1 1,1a1,1 0 0,1 -1,1a1,1 0 0,1 -1,-1a1,1 0 0,1 1,-1M13 56a1,1 0 0,1 1,1a1,1 0 0,1 -1,1a1,1 0 0,1 -1,-1a1,1 0 0,1 1,-1M13 64h2h2a1,1 0 0,0 1,-1v-2a1,1 0 0,1 1,-1h2a1,1 0 0,0 1,-1a1,1 0 0,0 -1,-1a1,1 0 0,1 -1,-1a1,1 0 0,1 1,-1h2a1,1 0 0,1 1,1a1,1 0 0,0 1,1h2h2a1,1 0 0,1 1,1v2a1,1 0 0,1 -1,1a1,1 0 0,1 -1,-1a1,1 0 0,0 -1,-1h-2a1,1 0 0,0 -1,1a1,1 0 0,1 -1,1a1,1 0 0,0 -1,1a1,1 0 0,1 -1,1a1,1 0 0,0 -1,1a1,1 0 0,1 -1,1a1,1 0 0,0 -1,1a1,1 0 0,1 -1,1a1,1 0 0,1 -1,-1a1,1 0 0,0 -1,-1h-2a1,1 0 0,1 -1,-1a1,1 0 0,1 1,-1M17 0h2a1,1 0 0,1 1,1a1,1 0 0,1 -1,1h-2a1,1 0 0,1 -1,-1a1,1 0 0,1 1,-1M17 4a1,1 0 0,1 1,1a1,1 0 0,1 -1,1a1,1 0 0,1 -1,-1a1,1 0 0,1 1,-1M17 8a1,1 0 0,1 1,1a1,1 0 0,1 -1,1a1,1 0 0,1 -1,-1a1,1 0 0,1 1,-1M17 12a1,1 0 0,1 1,1a1,1 0 0,0 1,1a1,1 0 0,1 1,1a1,1 0 0,1 -1,1h-2a1,1 0 0,1 -1,-1v-2a1,1 0 0,1 1,-1M17 70a1,1 0 0,1 1,1a1,1 0 0,1 -1,1a1,1 0 0,1 -1,-1a1,1 0 0,1 1,-1M19 6a1,1 0 0,1 1,1a1,1 0 0,1 -1,1a1,1 0 0,1 -1,-1a1,1 0 0,1 1,-1M19 42a1,1 0 0,1 1,1v2a1,1 0 0,1 -1,1a1,1 0 0,1 -1,-1v-2a1,1 0 0,1 1,-1M19 68a1,1 0 0,1 1,1a1,1 0 0,1 -1,1a1,1 0 0,1 -1,-1a1,1 0 0,1 1,-1M19 78a1,1 0 0,1 1,1a1,1 0 0,0 1,1a1,1 0 0,0 1,-1a1,1 0 0,1 1,-1a1,1 0 0,1 1,1v2a1,1 0 0,1 -1,1h-2h-2a1,1 0 0,1 -1,-1v-2a1,1 0 0,1 1,-1M21 4a1,1 0 0,1 1,1a1,1 0 0,1 -1,1a1,1 0 0,1 -1,-1a1,1 0 0,1 1,-1M21 8h2a1,1 0 0,0 1,-1a1,1 0 0,1 1,-1a1,1 0 0,1 1,1v2v2v2v2a1,1 0 0,1 -1,1a1,1 0 0,1 -1,-1v-2a1,1 0 0,0 -1,-1a1,1 0 0,0 -1,1a1,1 0 0,1 -1,1a1,1 0 0,1 -1,-1v-2v-2a1,1 0 0,1 1,-1M21 28h2h2h2a1,1 0 0,1 1,1a1,1 0 0,1 -1,1a1,1 0 0,0 -1,1a1,1 0 0,0 1,1a1,1 0 0,1 1,1v2v2v2a1,1 0 0,1 -1,1a1,1 0 0,1 -1,-1v-2v-2a1,1 0 0,0 -1,-1a1,1 0 0,1 -1,-1v-2a1,1 0 0,0 -1,-1h-2a1,1 0 0,1 -1,-1a1,1 0 0,1 1,-1M21 66a1,1 0 0,1 1,1a1,1 0 0,1 -1,1a1,1 0 0,1 -1,-1a1,1 0 0,1 1,-1M21 72a1,1 0 0,0 1,-1v-2a1,1 0 0,1 1,-1h2a1,1 0 0,0 1,-1a1,1 0 0,0 -1,-1h-2a1,1 0 0,1 -1,-1a1,1 0 0,1 1,-1h2h2a1,1 0 0,1 1,1v2v2a1,1 0 0,1 -1,1a1,1 0 0,0 -1,1v2a1,1 0 0,1 -1,1h-2a1,1 0 0,0 -1,1v2a1,1 0 0,1 -1,1a1,1 0 0,1 -1,-1v-2v-2a1,1 0 0,1 1,-1M23 0h2a1,1 0 0,1 1,1v2a1,1 0 0,1 -1,1a1,1 0 0,1 -1,-1a1,1 0 0,0 -1,-1a1,1 0 0,1 -1,-1a1,1 0 0,1 1,-1M23 16a1,1 0 0,1 1,1a1,1 0 0,1 -1,1a1,1 0 0,1 -1,-1a1,1 0 0,1 1,-1M23 24a1,1 0 0,1 1,1a1,1 0 0,1 -1,1a1,1 0 0,1 -1,-1a1,1 0 0,1 1,-1M23 36a1,1 0 0,1 1,1a1,1 0 0,1 -1,1a1,1 0 0,1 -1,-1a1,1 0 0,1 1,-1M23 52a1,1 0 0,1 1,1a1,1 0 0,1 -1,1a1,1 0 0,1 -1,-1a1,1 0 0,1 1,-1M25 18a1,1 0 0,0 1,-1a1,1 0 0,1 1,-1a1,1 0 0,1 1,1v2a1,1 0 0,1 -1,1h-2a1,1 0 0,1 -1,-1a1,1 0 0,1 1,-1M25 54a1,1 0 0,1 1,1a1,1 0 0,1 -1,1a1,1 0 0,1 -1,-1a1,1 0 0,1 1,-1M25 76a1,1 0 0,1 1,1a1,1 0 0,1 -1,1a1,1 0 0,1 -1,-1a1,1 0 0,1 1,-1M27 22a1,1 0 0,1 1,1a1,1 0 0,0 1,1a1,1 0 0,1 1,1a1,1 0 0,0 1,1a1,1 0 0,1 1,1a1,1 0 0,1 -1,1h-2a1,1 0 0,1 -1,-1a1,1 0 0,0 -1,-1a1,1 0 0,1 -1,-1v-2a1,1 0 0,1 1,-1M27 50a1,1 0 0,1 1,1v2a1,1 0 0,1 -1,1a1,1 0 0,1 -1,-1v-2a1,1 0 0,1 1,-1M27 74a1,1 0 0,0 1,-1v-2a1,1 0 0,1 1,-1a1,1 0 0,1 1,1a1,1 0 0,0 1,1h2h2a1,1 0 0,1 1,1a1,1 0 0,1 -1,1h-2h-2a1,1 0 0,0 -1,1a1,1 0 0,0 1,1h2h2a1,1 0 0,0 1,-1a1,1 0 0,1 1,-1a1,1 0 0,1 1,1v2v2a1,1 0 0,1 -1,1h-2h-2a1,1 0 0,0 -1,1a1,1 0 0,1 -1,1h-2a1,1 0 0,1 -1,-1v-2v-2a1,1 0 0,0 -1,-1a1,1 0 0,1 -1,-1a1,1 0 0,1 1,-1M29 4a1,1 0 0,0 1,-1a1,1 0 0,1 1,-1a1,1 0 0,1 1,1a1,1 0 0,0 1,1a1,1 0 0,1 1,1a1,1 0 0,1 -1,1a1,1 0 0,0 -1,1v2v2a1,1 0 0,1 -1,1a1,1 0 0,1 -1,-1v-2a1,1 0 0,0 -1,-1a1,1 0 0,1 -1,-1v-2a1,1 0 0,1 1,-1M29 12a1,1 0 0,1 1,1a1,1 0 0,1 -1,1a1,1 0 0,1 -1,-1a1,1 0 0,1 1,-1M29 20a1,1 0 0,1 1,1a1,1 0 0,1 -1,1a1,1 0 0,1 -1,-1a1,1 0 0,1 1,-1M31 22a1,1 0 0,1 1,1a1,1 0 0,1 -1,1a1,1 0 0,1 -1,-1a1,1 0 0,1 1,-1M31 54h2h2a1,1 0 0,1 1,1v2a1,1 0 0,1 -1,1a1,1 0 0,1 -1,-1a1,1 0 0,0 -1,-1h-2a1,1 0 0,1 -1,-1a1,1 0 0,1 1,-1M31 62a1,1 0 0,1 1,1a1,1 0 0,1 -1,1a1,1 0 0,1 -1,-1a1,1 0 0,1 1,-1M31 66a1,1 0 0,1 1,1a1,1 0 0,1 -1,1a1,1 0 0,1 -1,-1a1,1 0 0,1 1,-1M33 0a1,1 0 0,1 1,1a1,1 0 0,1 -1,1a1,1 0 0,1 -1,-1a1,1 0 0,1 1,-1M33 12a1,1 0 0,1 1,1v2a1,1 0 0,0 1,1h2h2a1,1 0 0,1 1,1v2a1,1 0 0,1 -1,1a1,1 0 0,0 -1,1a1,1 0 0,0 1,1a1,1 0 0,1 1,1v2a1,1 0 0,1 -1,1a1,1 0 0,0 -1,1a1,1 0 0,1 -1,1h-2a1,1 0 0,1 -1,-1a1,1 0 0,0 -1,-1a1,1 0 0,1 -1,-1a1,1 0 0,1 1,-1a1,1 0 0,0 1,-1a1,1 0 0,1 1,-1a1,1 0 0,0 1,-1a1,1 0 0,0 -1,-1a1,1 0 0,1 -1,-1a1,1 0 0,0 -1,-1a1,1 0 0,1 -1,-1v-2v-2a1,1 0 0,1 1,-1M33 20a1,1 0 0,1 1,1a1,1 0 0,1 -1,1a1,1 0 0,1 -1,-1a1,1 0 0,1 1,-1M33 58a1,1 0 0,1 1,1a1,1 0 0,1 -1,1a1,1 0 0,1 -1,-1a1,1 0 0,1 1,-1M33 64a1,1 0 0,1 1,1a1,1 0 0,1 -1,1a1,1 0 0,1 -1,-1a1,1 0 0,1 1,-1M35 2a1,1 0 0,1 1,1a1,1 0 0,1 -1,1a1,1 0 0,1 -1,-1a1,1 0 0,1 1,-1M35 6h2a1,1 0 0,1 1,1a1,1 0 0,0 1,1a1,1 0 0,1 1,1a1,1 0 0,0 1,1h2a1,1 0 0,0 1,-1a1,1 0 0,0 -1,-1h-2a1,1 0 0,1 -1,-1a1,1 0 0,1 1,-1h2h2h2a1,1 0 0,1 1,1v2a1,1 0 0,1 -1,1a1,1 0 0,0 -1,1v2a1,1 0 0,1 -1,1a1,1 0 0,1 -1,-1a1,1 0 0,0 -1,-1a1,1 0 0,0 -1,1v2a1,1 0 0,1 -1,1a1,1 0 0,1 -1,-1v-2a1,1 0 0,0 -1,-1a1,1 0 0,0 -1,1a1,1 0 0,1 -1,1a1,1 0 0,1 -1,-1a1,1 0 0,0 -1,-1a1,1 0 0,1 -1,-1v-2v-2a1,1 0 0,1 1,-1M35 60h2a1,1 0 0,1 1,1a1,1 0 0,1 -1,1a1,1 0 0,0 -1,1a1,1 0 0,1 -1,1a1,1 0 0,1 -1,-1v-2a1,1 0 0,1 1,-1M35 68a1,1 0 0,0 1,-1v-2a1,1 0 0,1 1,-1h2h2h2h2a1,1 0 0,1 1,1v2a1,1 0 0,1 -1,1a1,1 0 0,0 -1,1v2a1,1 0 0,1 -1,1a1,1 0 0,1 -1,-1v-2a1,1 0 0,0 -1,-1h-2a1,1 0 0,0 -1,1a1,1 0 0,1 -1,1h-2a1,1 0 0,1 -1,-1a1,1 0 0,1 1,-1M39 2h2a1,1 0 0,0 1,-1a1,1 0 0,1 1,-1a1,1 0 0,1 1,1v2a1,1 0 0,1 -1,1h-2a1,1 0 0,0 -1,1a1,1 0 0,1 -1,1a1,1 0 0,1 -1,-1v-2a1,1 0 0,1 1,-1M39 54h2h2a1,1 0 0,1 1,1a1,1 0 0,1 -1,1a1,1 0 0,0 -1,1a1,1 0 0,1 -1,1a1,1 0 0,1 -1,-1a1,1 0 0,0 -1,-1a1,1 0 0,1 -1,-1a1,1 0 0,1 1,-1M41 20h2a1,1 0 0,1 1,1a1,1 0 0,1 -1,1h-2a1,1 0 0,1 -1,-1a1,1 0 0,1 1,-1M41 26a1,1 0 0,1 1,1a1,1 0 0,1 -1,1a1,1 0 0,1 -1,-1a1,1 0 0,1 1,-1M41 76h2a1,1 0 0,1 1,1a1,1 0 0,1 -1,1a1,1 0 0,0 -1,1v2a1,1 0 0,1 -1,1a1,1 0 0,1 -1,-1v-2v-2a1,1 0 0,1 1,-1M45 24a1,1 0 0,0 1,-1v-2v-2v-2a1,1 0 0,1 1,-1a1,1 0 0,1 1,1v2a1,1 0 0,0 1,1a1,1 0 0,0 1,-1v-2a1,1 0 0,1 1,-1a1,1 0 0,0 1,-1v-2a1,1 0 0,0 -1,-1a1,1 0 0,0 -1,1v2a1,1 0 0,1 -1,1a1,1 0 0,1 -1,-1v-2v-2a1,1 0 0,1 1,-1a1,1 0 0,0 1,-1a1,1 0 0,1 1,-1a1,1 0 0,1 1,1a1,1 0 0,0 1,1a1,1 0 0,1 1,1v2a1,1 0 0,0 1,1a1,1 0 0,0 1,-1v-2a1,1 0 0,1 1,-1a1,1 0 0,1 1,1v2v2a1,1 0 0,0 1,1a1,1 0 0,1 1,1a1,1 0 0,1 -1,1h-2a1,1 0 0,0 -1,1v2a1,1 0 0,1 -1,1a1,1 0 0,1 -1,-1v-2a1,1 0 0,0 -1,-1a1,1 0 0,0 -1,1v2a1,1 0 0,0 1,1a1,1 0 0,1 1,1a1,1 0 0,0 1,1a1,1 0 0,0 1,-1a1,1 0 0,1 1,-1a1,1 0 0,1 1,1v2a1,1 0 0,1 -1,1h-2a1,1 0 0,0 -1,1a1,1 0 0,1 -1,1h-2h-2h-2h-2a1,1 0 0,1 -1,-1v-2a1,1 0 0,1 1,-1M45 56h2a1,1 0 0,1 1,1a1,1 0 0,0 1,1a1,1 0 0,1 1,1a1,1 0 0,1 -1,1a1,1 0 0,0 -1,1a1,1 0 0,1 -1,1a1,1 0 0,1 -1,-1v-2a1,1 0 0,0 -1,-1a1,1 0 0,1 -1,-1a1,1 0 0,1 1,-1M45 80a1,1 0 0,1 1,1a1,1 0 0,1 -1,1a1,1 0 0,1 -1,-1a1,1 0 0,1 1,-1M47 2a1,1 0 0,1 1,1a1,1 0 0,1 -1,1a1,1 0 0,1 -1,-1a1,1 0 0,1 1,-1M47 68a1,1 0 0,0 1,-1v-2v-2a1,1 0 0,1 1,-1a1,1 0 0,0 1,-1a1,1 0 0,1 1,-1a1,1 0 0,1 1,1a1,1 0 0,0 1,1a1,1 0 0,1 1,1a1,1 0 0,1 -1,1h-2a1,1 0 0,0 -1,1v2a1,1 0 0,0 1,1a1,1 0 0,1 1,1a1,1 0 0,0 1,1a1,1 0 0,0 1,-1a1,1 0 0,0 -1,-1a1,1 0 0,1 -1,-1a1,1 0 0,1 1,-1h2a1,1 0 0,0 1,-1a1,1 0 0,1 1,-1h2a1,1 0 0,1 1,1a1,1 0 0,1 -1,1a1,1 0 0,0 -1,1a1,1 0 0,1 -1,1a1,1 0 0,0 -1,1v2v2v2v2v2v2a1,1 0 0,1 -1,1h-2a1,1 0 0,1 -1,-1v-2a1,1 0 0,0 -1,-1a1,1 0 0,1 -1,-1a1,1 0 0,0 -1,-1a1,1 0 0,1 -1,-1v-2v-2a1,1 0 0,0 -1,-1a1,1 0 0,1 -1,-1a1,1 0 0,1 1,-1M47 76a1,1 0 0,1 1,1a1,1 0 0,1 -1,1a1,1 0 0,1 -1,-1a1,1 0 0,1 1,-1M49 4a1,1 0 0,0 1,-1a1,1 0 0,1 1,-1h2a1,1 0 0,1 1,1a1,1 0 0,1 -1,1a1,1 0 0,0 -1,1a1,1 0 0,1 -1,1h-2a1,1 0 0,1 -1,-1a1,1 0 0,1 1,-1M49 26h2a1,1 0 0,0 1,-1a1,1 0 0,0 -1,-1a1,1 0 0,1 -1,-1a1,1 0 0,0 -1,-1a1,1 0 0,0 -1,1v2a1,1 0 0,0 1,1M49 78a1,1 0 0,1 1,1a1,1 0 0,1 -1,1a1,1 0 0,1 -1,-1a1,1 0 0,1 1,-1M51 54h2a1,1 0 0,0 1,-1v-2v-2v-2v-2v-2v-2v-2v-2v-2a1,1 0 0,1 1,-1a1,1 0 0,1 1,1a1,1 0 0,0 1,1h2a1,1 0 0,1 1,1a1,1 0 0,1 -1,1a1,1 0 0,0 -1,1a1,1 0 0,0 1,1a1,1 0 0,0 1,-1a1,1 0 0,1 1,-1a1,1 0 0,1 1,1v2a1,1 0 0,1 -1,1a1,1 0 0,0 -1,1a1,1 0 0,1 -1,1a1,1 0 0,0 -1,1a1,1 0 0,1 -1,1a1,1 0 0,0 -1,1v2a1,1 0 0,0 1,1a1,1 0 0,1 1,1a1,1 0 0,0 1,1a1,1 0 0,1 1,1a1,1 0 0,1 -1,1a1,1 0 0,0 -1,1a1,1 0 0,0 1,1h2a1,1 0 0,0 1,-1a1,1 0 0,1 1,-1a1,1 0 0,1 1,1v2a1,1 0 0,0 1,1a1,1 0 0,0 1,-1v-2a1,1 0 0,0 -1,-1a1,1 0 0,1 -1,-1a1,1 0 0,1 1,-1a1,1 0 0,0 1,-1a1,1 0 0,0 -1,-1a1,1 0 0,0 -1,1a1,1 0 0,1 -1,1h-2a1,1 0 0,1 -1,-1a1,1 0 0,1 1,-1a1,1 0 0,0 1,-1a1,1 0 0,1 1,-1a1,1 0 0,0 1,-1v-2a1,1 0 0,1 1,-1a1,1 0 0,1 1,1a1,1 0 0,0 1,1a1,1 0 0,1 1,1a1,1 0 0,0 1,1a1,1 0 0,1 1,1v2a1,1 0 0,1 -1,1a1,1 0 0,0 -1,1v2v2a1,1 0 0,0 1,1a1,1 0 0,0 1,-1v-2a1,1 0 0,1 1,-1h2h2h2a1,1 0 0,1 1,1a1,1 0 0,0 1,1a1,1 0 0,1 1,1a1,1 0 0,1 -1,1h-2a1,1 0 0,0 -1,1a1,1 0 0,1 -1,1h-2h-2h-2a1,1 0 0,0 -1,1a1,1 0 0,1 -1,1a1,1 0 0,1 -1,-1a1,1 0 0,0 -1,-1a1,1 0 0,0 -1,1v2a1,1 0 0,1 -1,1a1,1 0 0,1 -1,-1v-2v-2a1,1 0 0,0 -1,-1a1,1 0 0,0 -1,1v2a1,1 0 0,1 -1,1h-2h-2a1,1 0 0,1 -1,-1a1,1 0 0,0 -1,-1a1,1 0 0,1 -1,-1a1,1 0 0,0 -1,-1a1,1 0 0,1 -1,-1v-2a1,1 0 0,1 1,-1M51 74h2a1,1 0 0,0 1,-1a1,1 0 0,0 -1,-1h-2a1,1 0 0,0 -1,1a1,1 0 0,0 1,1M55 28a1,1 0 0,1 1,1a1,1 0 0,1 -1,1a1,1 0 0,1 -1,-1a1,1 0 0,1 1,-1M55 58a1,1 0 0,1 1,1a1,1 0 0,0 1,1a1,1 0 0,0 1,-1a1,1 0 0,0 -1,-1a1,1 0 0,1 -1,-1a1,1 0 0,0 -1,-1a1,1 0 0,0 -1,1a1,1 0 0,0 1,1M57 0h2h2a1,1 0 0,1 1,1v2a1,1 0 0,1 -1,1h-2a1,1 0 0,1 -1,-1a1,1 0 0,0 -1,-1a1,1 0 0,1 -1,-1a1,1 0 0,1 1,-1M57 30a1,1 0 0,1 1,1a1,1 0 0,0 1,1a1,1 0 0,0 1,-1a1,1 0 0,0 -1,-1a1,1 0 0,1 -1,-1a1,1 0 0,1 1,-1h2a1,1 0 0,1 1,1a1,1 0 0,0 1,1a1,1 0 0,1 1,1a1,1 0 0,1 -1,1a1,1 0 0,0 -1,1a1,1 0 0,0 1,1a1,1 0 0,1 1,1v2a1,1 0 0,1 -1,1a1,1 0 0,1 -1,-1a1,1 0 0,0 -1,-1a1,1 0 0,1 -1,-1a1,1 0 0,0 -1,-1h-2a1,1 0 0,1 -1,-1v-2a1,1 0 0,1 1,-1M59 6a1,1 0 0,1 1,1a1,1 0 0,0 1,1h2a1,1 0 0,0 1,-1a1,1 0 0,1 1,-1a1,1 0 0,1 1,1v2a1,1 0 0,1 -1,1h-2h-2h-2a1,1 0 0,1 -1,-1v-2a1,1 0 0,1 1,-1M59 20a1,1 0 0,0 1,-1a1,1 0 0,1 1,-1h2a1,1 0 0,1 1,1a1,1 0 0,1 -1,1a1,1 0 0,0 -1,1a1,1 0 0,0 1,1a1,1 0 0,0 1,-1a1,1 0 0,1 1,-1h2a1,1 0 0,1 1,1a1,1 0 0,0 1,1h2h2h2a1,1 0 0,1 1,1a1,1 0 0,1 -1,1h-2h-2a1,1 0 0,0 -1,1a1,1 0 0,0 1,1h2h2a1,1 0 0,1 1,1v2a1,1 0 0,0 1,1h2h2a1,1 0 0,1 1,1v2v2v2v2v2a1,1 0 0,1 -1,1a1,1 0 0,1 -1,-1v-2v-2v-2v-2a1,1 0 0,0 -1,-1a1,1 0 0,0 -1,1a1,1 0 0,1 -1,1a1,1 0 0,1 -1,-1a1,1 0 0,0 -1,-1h-2a1,1 0 0,1 -1,-1a1,1 0 0,0 -1,-1a1,1 0 0,1 -1,-1a1,1 0 0,0 -1,-1a1,1 0 0,0 -1,1v2v2a1,1 0 0,0 1,1a1,1 0 0,0 1,-1a1,1 0 0,1 1,-1a1,1 0 0,1 1,1a1,1 0 0,0 1,1a1,1 0 0,1 1,1a1,1 0 0,0 1,1a1,1 0 0,1 1,1a1,1 0 0,1 -1,1a1,1 0 0,0 -1,1a1,1 0 0,1 -1,1a1,1 0 0,1 -1,-1a1,1 0 0,0 -1,-1a1,1 0 0,0 -1,1a1,1 0 0,1 -1,1a1,1 0 0,1 -1,-1a1,1 0 0,0 -1,-1a1,1 0 0,1 -1,-1v-2a1,1 0 0,0 -1,-1a1,1 0 0,1 -1,-1a1,1 0 0,1 1,-1a1,1 0 0,0 1,-1v-2v-2v-2a1,1 0 0,0 -1,-1h-2a1,1 0 0,0 -1,1a1,1 0 0,1 -1,1a1,1 0 0,1 -1,-1v-2a1,1 0 0,0 -1,-1a1,1 0 0,1 -1,-1a1,1 0 0,1 1,-1M59 74a1,1 0 0,1 1,1v2a1,1 0 0,1 -1,1a1,1 0 0,1 -1,-1v-2a1,1 0 0,1 1,-1M59 80a1,1 0 0,1 1,1a1,1 0 0,1 -1,1a1,1 0 0,1 -1,-1a1,1 0 0,1 1,-1M61 12a1,1 0 0,1 1,1a1,1 0 0,0 1,1a1,1 0 0,0 1,-1a1,1 0 0,1 1,-1a1,1 0 0,1 1,1v2a1,1 0 0,1 -1,1h-2h-2a1,1 0 0,1 -1,-1v-2a1,1 0 0,1 1,-1M61 44a1,1 0 0,1 1,1a1,1 0 0,1 -1,1a1,1 0 0,1 -1,-1a1,1 0 0,1 1,-1M61 66h2a1,1 0 0,0 1,-1a1,1 0 0,1 1,-1h2a1,1 0 0,0 1,-1a1,1 0 0,1 1,-1h2a1,1 0 0,1 1,1a1,1 0 0,0 1,1a1,1 0 0,1 1,1v2v2a1,1 0 0,0 1,1a1,1 0 0,1 1,1v2a1,1 0 0,1 -1,1h-2a1,1 0 0,0 -1,1a1,1 0 0,0 1,1a1,1 0 0,1 1,1v2a1,1 0 0,0 1,1a1,1 0 0,0 1,-1v-2a1,1 0 0,1 1,-1a1,1 0 0,0 1,-1v-2a1,1 0 0,1 1,-1a1,1 0 0,0 1,-1a1,1 0 0,1 1,-1a1,1 0 0,1 1,1v2v2a1,1 0 0,1 -1,1a1,1 0 0,0 -1,1a1,1 0 0,1 -1,1a1,1 0 0,0 -1,1v2a1,1 0 0,1 -1,1h-2h-2h-2h-2a1,1 0 0,1 -1,-1a1,1 0 0,1 1,-1h2a1,1 0 0,0 1,-1a1,1 0 0,0 -1,-1h-2a1,1 0 0,0 -1,1a1,1 0 0,1 -1,1a1,1 0 0,1 -1,-1v-2a1,1 0 0,1 1,-1h2a1,1 0 0,0 1,-1a1,1 0 0,0 -1,-1h-2h-2h-2h-2a1,1 0 0,1 -1,-1a1,1 0 0,1 1,-1h2a1,1 0 0,0 1,-1a1,1 0 0,0 -1,-1h-2a1,1 0 0,1 -1,-1v-2a1,1 0 0,1 1,-1M61 78a1,1 0 0,0 1,-1a1,1 0 0,1 1,-1a1,1 0 0,1 1,1v2a1,1 0 0,1 -1,1h-2a1,1 0 0,1 -1,-1a1,1 0 0,1 1,-1M63 4a1,1 0 0,1 1,1a1,1 0 0,1 -1,1a1,1 0 0,1 -1,-1a1,1 0 0,1 1,-1M63 26a1,1 0 0,1 1,1a1,1 0 0,1 -1,1a1,1 0 0,1 -1,-1a1,1 0 0,1 1,-1M63 42a1,1 0 0,1 1,1a1,1 0 0,1 -1,1a1,1 0 0,1 -1,-1a1,1 0 0,1 1,-1M65 2a1,1 0 0,1 1,1a1,1 0 0,1 -1,1a1,1 0 0,1 -1,-1a1,1 0 0,1 1,-1M65 38a1,1 0 0,1 1,1a1,1 0 0,1 -1,1a1,1 0 0,1 -1,-1a1,1 0 0,1 1,-1M67 40a1,1 0 0,1 1,1a1,1 0 0,1 -1,1a1,1 0 0,1 -1,-1a1,1 0 0,1 1,-1M67 72h2h2a1,1 0 0,0 1,-1v-2v-2a1,1 0 0,0 -1,-1h-2h-2a1,1 0 0,0 -1,1v2v2a1,1 0 0,0 1,1M69 16a1,1 0 0,1 1,1a1,1 0 0,1 -1,1a1,1 0 0,1 -1,-1a1,1 0 0,1 1,-1M69 44a1,1 0 0,0 1,-1a1,1 0 0,1 1,-1h2a1,1 0 0,0 1,-1a1,1 0 0,1 1,-1h2a1,1 0 0,1 1,1v2a1,1 0 0,1 -1,1h-2h-2a1,1 0 0,0 -1,1a1,1 0 0,1 -1,1h-2a1,1 0 0,1 -1,-1a1,1 0 0,1 1,-1M69 68a1,1 0 0,1 1,1a1,1 0 0,1 -1,1a1,1 0 0,1 -1,-1a1,1 0 0,1 1,-1M73 16a1,1 0 0,1 1,1v2a1,1 0 0,1 -1,1a1,1 0 0,1 -1,-1v-2a1,1 0 0,1 1,-1M73 46a1,1 0 0,1 1,1a1,1 0 0,1 -1,1a1,1 0 0,1 -1,-1a1,1 0 0,1 1,-1M73 50h2a1,1 0 0,1 1,1a1,1 0 0,1 -1,1h-2a1,1 0 0,1 -1,-1a1,1 0 0,1 1,-1M73 58a1,1 0 0,0 1,-1a1,1 0 0,0 -1,-1a1,1 0 0,0 -1,1a1,1 0 0,0 1,1M77 16a1,1 0 0,1 1,1a1,1 0 0,1 -1,1a1,1 0 0,1 -1,-1a1,1 0 0,1 1,-1M77 60h2a1,1 0 0,0 1,-1a1,1 0 0,1 1,-1a1,1 0 0,1 1,1v2a1,1 0 0,1 -1,1h-2h-2a1,1 0 0,1 -1,-1a1,1 0 0,1 1,-1M77 64h2a1,1 0 0,1 1,1a1,1 0 0,1 -1,1h-2a1,1 0 0,1 -1,-1a1,1 0 0,1 1,-1M79 18a1,1 0 0,1 1,1v2v2a1,1 0 0,1 -1,1a1,1 0 0,1 -1,-1v-2v-2a1,1 0 0,1 1,-1M79 46a1,1 0 0,1 1,1v2a1,1 0 0,1 -1,1a1,1 0 0,1 -1,-1v-2a1,1 0 0,1 1,-1M79 52a1,1 0 0,1 1,1a1,1 0 0,1 -1,1a1,1 0 0,1 -1,-1a1,1 0 0,1 1,-1M79 68a1,1 0 0,1 1,1a1,1 0 0,1 -1,1a1,1 0 0,1 -1,-1a1,1 0 0,1 1,-1M81 16a1,1 0 0,1 1,1a1,1 0 0,1 -1,1a1,1 0 0,1 -1,-1a1,1 0 0,1 1,-1M81 26a1,1 0 0,1 1,1a1,1 0 0,1 -1,1a1,1 0 0,1 -1,-1a1,1 0 0,1 1,-1M81 50a1,1 0 0,1 1,1a1,1 0 0,1 -1,1a1,1 0 0,1 -1,-1a1,1 0 0,1 1,-1M81 78a1,1 0 0,1 1,1a1,1 0 0,1 -1,1a1,1 0 0,1 -1,-1a1,1 0 0,1 1,-1" fill-rule="evenodd" fill="#1A1A1A" id="svg_1" /></g><path d="M3,0h8a3,3 0 0,1 3,3v8a3,3 0 0,1 -3,3h-8a3,3 0 0,1 -3,-3v-8a3,3 0 0,1 3,-3zM4.1,2a2.0999999999999996,2.0999999999999996 0 0,0 -2.0999999999999996,2.0999999999999996v5.800000000000001a2.0999999999999996,2.0999999999999996 0 0,0 2.0999999999999996,2.0999999999999996h5.800000000000001a2.0999999999999996,2.0999999999999996 0 0,0 2.0999999999999996,-2.0999999999999996v-5.800000000000001a2.0999999999999996,2.0999999999999996 0 0,0 -2.0999999999999996,-2.0999999999999996h-5.800000000000001zM5.5,4h3a1.5,1.5 0 0,1 1.5,1.5v3a1.5,1.5 0 0,1 -1.5,1.5h-3a1.5,1.5 0 0,1 -1.5,-1.5v-3a1.5,1.5 0 0,1 1.5,-1.5z" fill="#1A1A1A" fill-rule="evenodd"/>
<path d="M71,0h8a3,3 0 0,1 3,3v8a3,3 0 0,1 -3,3h-8a3,3 0 0,1 -3,-3v-8a3,3 0 0,1 3,-3zM72.1,2a2.0999999999999996,2.0999999999999996 0 0,0 -2.0999999999999996,2.0999999999999996v5.800000000000001a2.0999999999999996,2.0999999999999996 0 0,0 2.0999999999999996,2.0999999999999996h5.800000000000001a2.0999999999999996,2.0999999999999996 0 0,0 2.0999999999999996,-2.0999999999999996v-5.800000000000001a2.0999999999999996,2.0999999999999996 0 0,0 -2.0999999999999996,-2.0999999999999996h-5.800000000000001zM73.5,4h3a1.5,1.5 0 0,1 1.5,1.5v3a1.5,1.5 0 0,1 -1.5,1.5h-3a1.5,1.5 0 0,1 -1.5,-1.5v-3a1.5,1.5 0 0,1 1.5,-1.5z" fill="#1A1A1A" fill-rule="evenodd"/>
<path d="M3,68h8a3,3 0 0,1 3,3v8a3,3 0 0,1 -3,3h-8a3,3 0 0,1 -3,-3v-8a3,3 0 0,1 3,-3zM4.1,70a2.0999999999999996,2.0999999999999996 0 0,0 -2.0999999999999996,2.0999999999999996v5.800000000000001a2.0999999999999996,2.0999999999999996 0 0,0 2.0999999999999996,2.0999999999999996h5.800000000000001a2.0999999999999996,2.0999999999999996 0 0,0 2.0999999999999996,-2.0999999999999996v-5.800000000000001a2.0999999999999996,2.0999999999999996 0 0,0 -2.0999999999999996,-2.0999999999999996h-5.800000000000001zM5.5,72h3a1.5,1.5 0 0,1 1.5,1.5v3a1.5,1.5 0 0,1 -1.5,1.5h-3a1.5,1.5 0 0,1 -1.5,-1.5v-3a1.5,1.5 0 0,1 1.5,-1.5z" fill="#1A1A1A" fill-rule="evenodd"/><svg width="20.50" height="20.50" x="30.75" y="30.75" fill="none" viewBox="0 0 1000 1000">
      <path fill="#1A1A1A" d="M438.215 281.252L295.715 134.768L212.991 219.484L362.464 361.984H152.22V479.577H363.46L212.991 625.741L295.715 708.786L499.982 503.523L704.249 708.786L786.973 626.062L636.504 479.898H847.78V361.984H637.536L787.009 219.484L704.285 134.768L561.785 281.252V73H438.215V281.252ZM561.785 647.979H438.215V927H561.785V647.979Z" />
    </svg></svg>